<svg xmlns="http://www.w3.org/2000/svg" viewBox="0 0 24 24" fill="none" stroke="currentColor" stroke-width="1.8" stroke-linecap="round" stroke-linejoin="round">
  <path d="M22 5.8c-.7.3-1.5.5-2.3.7.8-.5 1.4-1.2 1.7-2.2-.8.5-1.7.8-2.6 1-1.5-1.6-4.2-1.7-5.8-.2-1 1-1.4 2.4-1.1 3.8-3.2-.2-6.2-1.8-8.2-4.3-1 1.8-.5 4.1 1.2 5.2-.6 0-1.2-.2-1.7-.5 0 0 0 .1 0 .1 0 2 1.4 3.8 3.4 4.2-.6.2-1.2.2-1.8.1.5 1.7 2.1 2.9 3.9 3-1.5 1.2-3.4 1.9-5.3 1.9H2c2 1.3 4.4 2.1 6.9 2.1 8.2 0 12.9-6.9 12.9-12.9v-.6c.8-.6 1.5-1.3 2.1-2.1z"/>
</svg>
